<svg width="229" height="186" viewBox="0 0 229 186" fill="none" xmlns="http://www.w3.org/2000/svg">
<path d="M210.251 26.0556C192.131 96.9998 143.174 165.312 141.096 168.183C137.223 173.549 128.222 186 114.592 186C114.387 186 114.19 186 113.994 185.991C100.679 185.632 92.6585 173.77 89.2267 168.708C74.6367 147.118 40.4659 96.5765 19.1398 27.1783C18.3652 24.6751 16.0316 17.0644 20.6007 10.3464C27.4741 0.241734 43.025 1.4473 48.1335 1.84302C52.3889 2.17432 57.1346 2.86453 62.3313 3.91365L70.4205 0.950348C77.9998 -1.82889 86.5793 1.69577 89.5404 8.80953C91.8643 14.3864 91.727 20.4971 89.1482 26.0187C86.5793 31.5312 81.8827 35.7645 75.9408 37.9456C74.2053 38.5805 72.3913 38.9026 70.5872 38.9026C68.5673 38.9026 66.5573 38.5069 64.6551 37.7247C61.037 36.2338 58.2622 33.5282 56.8208 30.0864L53.4675 22.0431C53.1145 21.1965 52.8595 20.3314 52.6929 19.4572C41.0836 17.6902 36.8772 19.0798 35.8967 19.54C35.8771 20.0001 35.9948 20.856 36.4948 22.4757C57.1052 89.5456 90.3052 138.661 104.483 159.625C108.67 165.818 112.043 168.984 114.504 169.048C114.534 169.048 114.563 169.048 114.592 169.048C117.289 169.048 121.172 165.551 126.143 158.668C126.633 157.996 175.345 89.9965 192.68 22.1076C193.033 20.7455 193.102 20.0185 193.073 19.6228C192.033 19.1351 186.866 17.3865 171.442 20.5615C171.305 21.0584 171.139 21.5554 170.933 22.0431L167.579 30.0864C166.148 33.5282 163.373 36.243 159.755 37.7247C157.853 38.5069 155.833 38.9026 153.823 38.9026C152.009 38.9026 150.195 38.5805 148.469 37.9456C136.154 33.4362 130.055 20.3682 134.86 8.80953C137.134 3.35228 142.714 0.00246085 148.616 0.00246085C150.401 0.00246085 152.215 0.306153 153.97 0.950348L162.549 4.0977C163.069 4.29096 163.589 4.51183 164.079 4.7603C169.883 3.4443 175.159 2.55163 179.855 2.1007C185.111 1.59454 201.083 0.057678 208.221 10.2452C212.663 16.5859 210.839 23.718 210.241 26.0556H210.251Z" fill="#8D0B41"/>
<path d="M158.372 180.368C176.746 156.753 191.238 130.645 203.348 103.773C211.947 84.677 219.467 65.1395 225.625 45.2339C226.733 41.6448 227.831 38.0373 228.772 34.4022C230.606 27.3344 218.997 24.3251 217.153 31.3929C214.369 42.0957 210.77 52.6421 207.015 63.0689C198.484 86.7476 188.267 109.92 175.923 132.071C167.677 146.86 158.46 161.18 147.968 174.662C146.047 177.128 147.527 180.966 150.126 182.392C153.175 184.067 156.44 182.834 158.362 180.368H158.372Z" fill="#D39D55"/>
<path d="M81.0092 174.662C50.3388 135.256 29.3951 88.9291 14.962 42.2249C13.854 38.6358 12.7559 35.0284 11.8146 31.3933C9.98102 24.3255 -1.63803 27.3164 0.195525 34.4026C3.0292 45.2987 6.70611 56.0475 10.5497 66.6583C19.3645 91.0365 29.9246 114.955 42.6516 137.777C50.8977 152.566 60.1145 166.886 70.606 180.368C72.518 182.834 75.8321 184.049 78.8423 182.393C81.4308 180.975 82.931 177.138 80.9994 174.662H81.0092Z" fill="#D39D55"/>
</svg>
