<svg width="342" height="163" viewBox="0 0 342 163" fill="none" xmlns="http://www.w3.org/2000/svg">
<path d="M173.243 22.8336C158.312 85.0052 117.973 144.87 116.26 147.387C113.069 152.088 105.652 163 94.4219 163C94.2522 163 94.0906 163 93.929 162.992C82.9575 162.677 76.3487 152.282 73.521 147.846C61.4991 128.926 33.3431 84.6343 15.7708 23.8175C15.1325 21.6239 13.2097 14.9543 16.9746 9.067C22.6381 0.211842 35.4517 1.26833 39.661 1.61512C43.1674 1.90545 47.0777 2.51031 51.3597 3.4297L58.0251 0.832832C64.2703 -1.60274 71.3396 1.48608 73.7795 7.72018C75.6943 12.6075 75.5812 17.9625 73.4563 22.8014C71.3396 27.6322 67.4696 31.342 62.5736 33.2534C61.1436 33.8098 59.649 34.0921 58.1624 34.0921C56.4981 34.0921 54.8418 33.7453 53.2745 33.0598C50.2933 31.7533 48.0068 29.3823 46.8192 26.366L44.0561 19.3174C43.7653 18.5754 43.5552 17.8173 43.4178 17.0512C33.8521 15.5027 30.3861 16.7205 29.5782 17.1237C29.562 17.527 29.659 18.277 30.071 19.6964C47.0535 78.4727 74.4097 121.515 86.0922 139.886C89.542 145.314 92.3213 148.088 94.3492 148.145C94.3734 148.145 94.3976 148.145 94.4219 148.145C96.6437 148.145 99.843 145.08 103.939 139.048C104.343 138.459 144.481 78.8679 158.765 19.3738C159.056 18.1802 159.112 17.5431 159.088 17.1963C158.231 16.7689 153.974 15.2366 141.265 18.0189C141.152 18.4544 141.015 18.8899 140.845 19.3174L138.082 26.366C136.902 29.3823 134.616 31.7614 131.635 33.0598C130.067 33.7453 128.403 34.0921 126.747 34.0921C125.252 34.0921 123.757 33.8098 122.336 33.2534C112.188 29.3016 107.163 17.8496 111.122 7.72018C112.996 2.93775 117.593 0.00215655 122.457 0.00215655C123.927 0.00215655 125.422 0.268295 126.868 0.832832L133.937 3.591C134.365 3.76036 134.794 3.95391 135.198 4.17166C139.981 3.0184 144.327 2.23611 148.197 1.84093C152.528 1.39737 165.689 0.0505458 171.57 8.97829C175.23 14.5349 173.727 20.7852 173.235 22.8336H173.243Z" fill="#8D0B41"/>
<path d="M130.495 158.065C145.635 137.371 157.576 114.491 167.554 90.9415C174.64 74.207 180.836 57.0854 185.91 39.6413C186.823 36.496 187.728 33.3346 188.504 30.149C190.014 23.9552 180.449 21.318 178.93 27.5118C176.635 36.8911 173.67 46.1334 170.576 55.2708C163.547 76.0216 155.128 96.3288 144.957 115.741C138.162 128.701 130.568 141.25 121.923 153.065C120.339 155.226 121.559 158.589 123.7 159.839C126.213 161.307 128.903 160.226 130.487 158.065H130.495Z" fill="#D39D55"/>
<path d="M66.7499 153.064C41.4782 118.531 24.221 77.9327 12.3284 37.0038C11.4154 33.8585 10.5106 30.6971 9.73497 27.5115C8.22416 21.3177 -1.3497 23.9388 0.161108 30.1487C2.496 39.6974 5.5257 49.1171 8.69275 58.4159C15.956 79.7795 24.6573 100.74 35.1441 120.741C41.9387 133.701 49.5331 146.25 58.1779 158.065C59.7533 160.226 62.4841 161.291 64.9644 159.839C67.0973 158.597 68.3335 155.234 66.7419 153.064H66.7499Z" fill="#D39D55"/>
<path d="M216.203 43.319L213.556 63.3496H205.65L202.644 43.319H208.137C208.772 48.837 209.226 53.5013 209.498 57.312C209.77 53.4601 210.054 50.0371 210.351 47.043L210.71 43.319H216.203ZM228.266 55.4314H221.796V58.9822C221.796 59.7245 221.849 60.2029 221.957 60.4174C222.064 60.6318 222.27 60.7391 222.575 60.7391C222.955 60.7391 223.206 60.5989 223.33 60.3184C223.462 60.0297 223.528 59.4771 223.528 58.6605V56.4954H228.266V57.7079C228.266 58.7224 228.2 59.5018 228.068 60.0462C227.945 60.5906 227.648 61.1721 227.178 61.7907C226.707 62.4093 226.109 62.8753 225.384 63.1888C224.666 63.494 223.763 63.6465 222.674 63.6465C221.618 63.6465 220.686 63.494 219.878 63.1888C219.07 62.8836 218.439 62.4671 217.985 61.9392C217.54 61.403 217.23 60.8174 217.057 60.1823C216.884 59.539 216.797 58.6069 216.797 57.3862V52.5982C216.797 51.163 216.991 50.033 217.379 49.2082C217.767 48.3751 218.402 47.74 219.284 47.3028C220.167 46.8574 221.181 46.6347 222.328 46.6347C223.73 46.6347 224.885 46.9028 225.792 47.4389C226.707 47.9668 227.347 48.672 227.71 49.5546C228.081 50.4289 228.266 51.662 228.266 53.2539V55.4314ZM223.256 52.759V51.5589C223.256 50.7093 223.21 50.1608 223.12 49.9134C223.029 49.6659 222.843 49.5422 222.563 49.5422C222.216 49.5422 222.002 49.6494 221.919 49.8639C221.837 50.0701 221.796 50.6351 221.796 51.5589V52.759H223.256ZM234.91 46.9317L234.712 49.0844C235.438 47.542 236.49 46.7255 237.867 46.6347V52.4126C236.952 52.4126 236.279 52.5363 235.851 52.7837C235.422 53.0312 235.158 53.3776 235.059 53.823C234.96 54.2602 234.91 55.2747 234.91 56.8666V63.3496H229.912V46.9317H234.91ZM244.734 44.7418V47.3276H246.082V49.9258H244.734V58.71C244.734 59.7905 244.787 60.3926 244.895 60.5164C245.01 60.6401 245.476 60.702 246.293 60.702V63.3496H244.276C243.138 63.3496 242.325 63.3042 241.839 63.2135C241.352 63.1145 240.923 62.896 240.552 62.5578C240.181 62.2114 239.95 61.8196 239.859 61.3824C239.768 60.937 239.723 59.8978 239.723 58.2646V49.9258H238.647V47.3276H239.723V44.7418H244.734ZM258.504 55.4314H252.033V58.9822C252.033 59.7245 252.087 60.2029 252.194 60.4174C252.301 60.6318 252.508 60.7391 252.813 60.7391C253.192 60.7391 253.444 60.5989 253.568 60.3184C253.7 60.0297 253.766 59.4771 253.766 58.6605V56.4954H258.504V57.7079C258.504 58.7224 258.438 59.5018 258.306 60.0462C258.182 60.5906 257.885 61.1721 257.415 61.7907C256.945 62.4093 256.347 62.8753 255.621 63.1888C254.904 63.494 254.001 63.6465 252.912 63.6465C251.856 63.6465 250.924 63.494 250.116 63.1888C249.307 62.8836 248.676 62.4671 248.223 61.9392C247.777 61.403 247.468 60.8174 247.295 60.1823C247.122 59.539 247.035 58.6069 247.035 57.3862V52.5982C247.035 51.163 247.229 50.033 247.617 49.2082C248.004 48.3751 248.639 47.74 249.522 47.3028C250.404 46.8574 251.419 46.6347 252.565 46.6347C253.968 46.6347 255.122 46.9028 256.03 47.4389C256.945 47.9668 257.584 48.672 257.947 49.5546C258.319 50.4289 258.504 51.662 258.504 53.2539V55.4314ZM253.493 52.759V51.5589C253.493 50.7093 253.448 50.1608 253.357 49.9134C253.267 49.6659 253.081 49.5422 252.8 49.5422C252.454 49.5422 252.24 49.6494 252.157 49.8639C252.075 50.0701 252.033 50.6351 252.033 51.5589V52.759H253.493ZM270.047 46.9317L268.055 54.7757L270.468 63.3496H265.606C265.127 61.1886 264.764 59.3286 264.517 57.7697C264.187 59.7163 263.828 61.5763 263.441 63.3496H259.259L261.412 54.7757L259.259 46.9317H263.441C264.109 50.2804 264.468 52.1816 264.517 52.6353C264.995 49.8391 265.358 47.9379 265.606 46.9317H270.047Z" fill="#D39D55"/>
<path d="M218.587 75.1073V99.416H212.266V89.206H210.374V99.416H204.053V75.1073H210.374V83.8008H212.266V75.1073H218.587ZM234.698 89.8066H226.845V94.1158C226.845 95.0167 226.911 95.5973 227.041 95.8575C227.171 96.1178 227.421 96.2479 227.791 96.2479C228.252 96.2479 228.557 96.0778 228.707 95.7374C228.867 95.3871 228.948 94.7164 228.948 93.7255V91.0979H234.698V92.5693C234.698 93.8005 234.618 94.7465 234.458 95.4071C234.308 96.0677 233.947 96.7734 233.377 97.5242C232.806 98.2749 232.081 98.8405 231.2 99.2208C230.329 99.5912 229.233 99.7764 227.912 99.7764C226.63 99.7764 225.499 99.5912 224.518 99.2208C223.537 98.8505 222.771 98.345 222.221 97.7043C221.68 97.0537 221.305 96.343 221.095 95.5723C220.885 94.7915 220.78 93.6604 220.78 92.179V86.3683C220.78 84.6266 221.015 83.2552 221.485 82.2543C221.956 81.2433 222.726 80.4725 223.797 79.942C224.869 79.4015 226.1 79.1312 227.491 79.1312C229.193 79.1312 230.594 79.4565 231.695 80.1072C232.806 80.7478 233.582 81.6036 234.022 82.6747C234.473 83.7357 234.698 85.2322 234.698 87.1641V89.8066ZM228.617 86.5635V85.107C228.617 84.076 228.562 83.4104 228.452 83.1101C228.342 82.8098 228.117 82.6597 227.776 82.6597C227.356 82.6597 227.096 82.7898 226.996 83.05C226.896 83.3003 226.845 83.986 226.845 85.107V86.5635H228.617ZM242.115 87.2091H236.425V85.8728C236.425 84.3313 236.6 83.1451 236.95 82.3143C237.311 81.4735 238.026 80.7328 239.097 80.0922C240.168 79.4515 241.56 79.1312 243.272 79.1312C245.324 79.1312 246.87 79.4966 247.911 80.2273C248.952 80.948 249.578 81.8389 249.788 82.8999C249.998 83.9509 250.103 86.123 250.103 89.4163V99.416H244.202V97.6443C243.832 98.355 243.352 98.8905 242.761 99.2509C242.18 99.6012 241.485 99.7764 240.674 99.7764C239.613 99.7764 238.637 99.4811 237.746 98.8905C236.865 98.2899 236.425 96.9836 236.425 94.9717V93.3351C236.425 91.8436 236.66 90.8276 237.131 90.2871C237.601 89.7466 238.767 89.116 240.629 88.3953C242.621 87.6145 243.687 87.089 243.827 86.8187C243.967 86.5485 244.037 85.9979 244.037 85.1671C244.037 84.1261 243.957 83.4504 243.797 83.1401C243.647 82.8198 243.392 82.6597 243.031 82.6597C242.621 82.6597 242.366 82.7948 242.266 83.0651C242.165 83.3253 242.115 84.011 242.115 85.1221V87.2091ZM244.037 89.9418C243.066 90.6525 242.501 91.248 242.341 91.7285C242.19 92.209 242.115 92.8997 242.115 93.8005C242.115 94.8315 242.18 95.4972 242.311 95.7975C242.451 96.0978 242.721 96.2479 243.121 96.2479C243.502 96.2479 243.747 96.1328 243.857 95.9026C243.977 95.6624 244.037 95.0417 244.037 94.0408V89.9418ZM258.436 75.1073V99.416H252.19V75.1073H258.436ZM267.025 76.834V79.972H268.661V83.1251H267.025V93.7855C267.025 95.0968 267.09 95.8275 267.22 95.9777C267.36 96.1278 267.926 96.2029 268.917 96.2029V99.416H266.469C265.088 99.416 264.102 99.361 263.511 99.2509C262.921 99.1307 262.4 98.8655 261.95 98.4551C261.499 98.0347 261.219 97.5592 261.109 97.0287C260.999 96.4882 260.944 95.2269 260.944 93.245V83.1251H259.637V79.972H260.944V76.834H267.025ZM276.064 75.1073V80.5726C276.584 80.0922 277.145 79.7318 277.745 79.4916C278.356 79.2513 279.006 79.1312 279.697 79.1312C280.758 79.1312 281.659 79.4015 282.4 79.942C283.15 80.4825 283.606 81.1081 283.766 81.8188C283.936 82.5195 284.021 83.8058 284.021 85.6776V99.416H277.955V85.3923C277.955 84.2312 277.895 83.4855 277.775 83.1551C277.665 82.8248 277.41 82.6597 277.009 82.6597C276.639 82.6597 276.389 82.8298 276.259 83.1702C276.129 83.5105 276.064 84.1861 276.064 85.1971V99.416H269.998V75.1073H276.064ZM299.531 87.0139H293.811V84.7167C293.811 83.9159 293.746 83.3754 293.616 83.0951C293.486 82.8048 293.245 82.6597 292.895 82.6597C292.545 82.6597 292.309 82.7848 292.189 83.035C292.069 83.2853 292.009 83.8458 292.009 84.7167V94.1158C292.009 94.8265 292.099 95.3621 292.279 95.7224C292.46 96.0728 292.725 96.2479 293.075 96.2479C293.486 96.2479 293.761 96.0627 293.901 95.6924C294.051 95.322 294.126 94.6213 294.126 93.5903V91.218H299.531C299.521 92.8096 299.461 94.0057 299.351 94.8065C299.251 95.5973 298.916 96.4131 298.345 97.2539C297.785 98.0847 297.049 98.7153 296.138 99.1458C295.227 99.5662 294.101 99.7764 292.76 99.7764C291.048 99.7764 289.692 99.4861 288.691 98.9055C287.69 98.3149 286.979 97.4941 286.559 96.4431C286.148 95.3821 285.943 93.8806 285.943 91.9387V86.2782C285.943 84.5865 286.113 83.3103 286.454 82.4495C286.794 81.5886 287.52 80.8229 288.631 80.1522C289.742 79.4715 291.093 79.1312 292.685 79.1312C294.266 79.1312 295.618 79.4665 296.739 80.1372C297.86 80.8079 298.606 81.6537 298.976 82.6747C299.346 83.6957 299.531 85.1421 299.531 87.0139ZM306.768 87.2091H301.078V85.8728C301.078 84.3313 301.253 83.1451 301.603 82.3143C301.964 81.4735 302.679 80.7328 303.751 80.0922C304.822 79.4515 306.213 79.1312 307.925 79.1312C309.977 79.1312 311.523 79.4966 312.564 80.2273C313.605 80.948 314.231 81.8389 314.441 82.8999C314.651 83.9509 314.756 86.123 314.756 89.4163V99.416H308.856V97.6443C308.485 98.355 308.005 98.8905 307.414 99.2509C306.834 99.6012 306.138 99.7764 305.327 99.7764C304.266 99.7764 303.29 99.4811 302.399 98.8905C301.518 98.2899 301.078 96.9836 301.078 94.9717V93.3351C301.078 91.8436 301.313 90.8276 301.784 90.2871C302.254 89.7466 303.42 89.116 305.282 88.3953C307.274 87.6145 308.34 87.089 308.48 86.8187C308.62 86.5485 308.69 85.9979 308.69 85.1671C308.69 84.1261 308.61 83.4504 308.45 83.1401C308.3 82.8198 308.045 82.6597 307.684 82.6597C307.274 82.6597 307.019 82.7948 306.919 83.0651C306.819 83.3253 306.768 84.011 306.768 85.1221V87.2091ZM308.69 89.9418C307.719 90.6525 307.154 91.248 306.994 91.7285C306.844 92.209 306.768 92.8997 306.768 93.8005C306.768 94.8315 306.834 95.4972 306.964 95.7975C307.104 96.0978 307.374 96.2479 307.774 96.2479C308.155 96.2479 308.4 96.1328 308.51 95.9026C308.63 95.6624 308.69 95.0417 308.69 94.0408V89.9418ZM322.909 79.4916L322.669 82.1041C323.55 80.2323 324.826 79.2413 326.498 79.1312V86.1431C325.387 86.1431 324.571 86.2932 324.05 86.5935C323.53 86.8938 323.21 87.3142 323.089 87.8547C322.969 88.3852 322.909 89.6165 322.909 91.5483V99.416H316.843V79.4916H322.909ZM341.602 89.8066H333.75V94.1158C333.75 95.0167 333.815 95.5973 333.945 95.8575C334.075 96.1178 334.325 96.2479 334.696 96.2479C335.156 96.2479 335.461 96.0778 335.612 95.7374C335.772 95.3871 335.852 94.7164 335.852 93.7255V91.0979H341.602V92.5693C341.602 93.8005 341.522 94.7465 341.362 95.4071C341.212 96.0677 340.852 96.7734 340.281 97.5242C339.711 98.2749 338.985 98.8405 338.104 99.2208C337.233 99.5912 336.137 99.7764 334.816 99.7764C333.535 99.7764 332.404 99.5912 331.423 99.2208C330.442 98.8505 329.676 98.345 329.125 97.7043C328.585 97.0537 328.209 96.343 327.999 95.5723C327.789 94.7915 327.684 93.6604 327.684 92.179V86.3683C327.684 84.6266 327.919 83.2552 328.39 82.2543C328.86 81.2433 329.631 80.4725 330.702 79.942C331.773 79.4015 333.004 79.1312 334.395 79.1312C336.097 79.1312 337.498 79.4565 338.6 80.1072C339.711 80.7478 340.486 81.6036 340.927 82.6747C341.377 83.7357 341.602 85.2322 341.602 87.1641V89.8066ZM335.522 86.5635V85.107C335.522 84.076 335.466 83.4104 335.356 83.1101C335.246 82.8098 335.021 82.6597 334.681 82.6597C334.26 82.6597 334 82.7898 333.9 83.05C333.8 83.3003 333.75 83.986 333.75 85.107V86.5635H335.522Z" fill="#8D0B41"/>
<path d="M215.969 119.254H210.69V117.634C210.69 116.878 210.623 116.397 210.488 116.19C210.353 115.983 210.128 115.879 209.813 115.879C209.471 115.879 209.21 116.019 209.03 116.298C208.858 116.577 208.773 117 208.773 117.567C208.773 118.296 208.872 118.845 209.07 119.214C209.259 119.583 209.795 120.028 210.677 120.55C213.206 122.054 214.799 123.287 215.456 124.25C216.113 125.213 216.442 126.765 216.442 128.908C216.442 130.465 216.257 131.612 215.888 132.35C215.528 133.088 214.826 133.71 213.782 134.214C212.738 134.709 211.523 134.956 210.137 134.956C208.615 134.956 207.315 134.668 206.235 134.092C205.164 133.516 204.462 132.782 204.129 131.891C203.796 131 203.629 129.736 203.629 128.098V126.666H208.908V129.326C208.908 130.145 208.98 130.672 209.124 130.906C209.277 131.14 209.543 131.257 209.921 131.257C210.299 131.257 210.578 131.108 210.758 130.811C210.947 130.514 211.041 130.073 211.041 129.488C211.041 128.201 210.866 127.359 210.515 126.963C210.155 126.567 209.268 125.906 207.855 124.979C206.442 124.043 205.506 123.363 205.047 122.94C204.588 122.517 204.205 121.932 203.899 121.185C203.602 120.438 203.454 119.484 203.454 118.323C203.454 116.649 203.665 115.425 204.088 114.65C204.52 113.876 205.213 113.273 206.167 112.841C207.121 112.4 208.273 112.18 209.624 112.18C211.1 112.18 212.355 112.418 213.39 112.895C214.434 113.372 215.123 113.975 215.456 114.704C215.798 115.425 215.969 116.653 215.969 118.39V119.254ZM230.415 122.873V127.26C230.415 128.872 230.334 130.055 230.172 130.811C230.01 131.558 229.664 132.26 229.133 132.917C228.602 133.565 227.918 134.047 227.08 134.362C226.252 134.668 225.298 134.821 224.218 134.821C223.012 134.821 221.991 134.691 221.153 134.43C220.316 134.16 219.664 133.759 219.196 133.228C218.737 132.688 218.408 132.04 218.21 131.284C218.012 130.519 217.913 129.376 217.913 127.855V123.264C217.913 121.599 218.093 120.298 218.453 119.362C218.813 118.426 219.461 117.675 220.397 117.108C221.334 116.541 222.531 116.257 223.989 116.257C225.213 116.257 226.261 116.442 227.134 116.811C228.017 117.171 228.696 117.643 229.173 118.228C229.65 118.813 229.974 119.416 230.145 120.037C230.325 120.658 230.415 121.604 230.415 122.873ZM224.961 121.523C224.961 120.604 224.911 120.028 224.812 119.794C224.713 119.551 224.502 119.43 224.178 119.43C223.854 119.43 223.638 119.551 223.53 119.794C223.422 120.028 223.368 120.604 223.368 121.523V129.61C223.368 130.456 223.422 131.009 223.53 131.27C223.638 131.522 223.849 131.648 224.164 131.648C224.488 131.648 224.7 131.531 224.799 131.297C224.907 131.063 224.961 130.559 224.961 129.785V121.523ZM237.841 112.639V134.497H232.224V112.639H237.841ZM252.301 116.581V134.497H246.752L246.846 133.012C246.468 133.615 246 134.07 245.442 134.376C244.893 134.673 244.258 134.821 243.538 134.821C242.719 134.821 242.04 134.677 241.5 134.389C240.96 134.101 240.559 133.719 240.298 133.241C240.046 132.764 239.889 132.269 239.826 131.756C239.763 131.234 239.731 130.204 239.731 128.665V116.581H245.185V128.773C245.185 130.168 245.226 130.996 245.307 131.257C245.397 131.518 245.631 131.648 246.009 131.648C246.414 131.648 246.653 131.513 246.725 131.243C246.806 130.973 246.846 130.105 246.846 128.638V116.581H252.301ZM260.01 114.191V117.013H261.481V119.848H260.01V129.434C260.01 130.613 260.068 131.27 260.185 131.405C260.311 131.54 260.82 131.608 261.711 131.608V134.497H259.51C258.268 134.497 257.381 134.448 256.85 134.349C256.319 134.241 255.851 134.002 255.446 133.633C255.041 133.255 254.789 132.827 254.69 132.35C254.591 131.864 254.542 130.73 254.542 128.948V119.848H253.367V117.013H254.542V114.191H260.01ZM268.299 112.639V115.488H262.683V112.639H268.299ZM268.299 116.581V134.497H262.683V116.581H268.299ZM282.611 122.873V127.26C282.611 128.872 282.53 130.055 282.368 130.811C282.206 131.558 281.859 132.26 281.328 132.917C280.797 133.565 280.113 134.047 279.276 134.362C278.448 134.668 277.494 134.821 276.414 134.821C275.207 134.821 274.186 134.691 273.349 134.43C272.512 134.16 271.859 133.759 271.391 133.228C270.932 132.688 270.604 132.04 270.406 131.284C270.208 130.519 270.109 129.376 270.109 127.855V123.264C270.109 121.599 270.289 120.298 270.649 119.362C271.009 118.426 271.657 117.675 272.593 117.108C273.529 116.541 274.726 116.257 276.184 116.257C277.408 116.257 278.457 116.442 279.33 116.811C280.212 117.171 280.891 117.643 281.368 118.228C281.845 118.813 282.17 119.416 282.341 120.037C282.521 120.658 282.611 121.604 282.611 122.873ZM277.156 121.523C277.156 120.604 277.107 120.028 277.008 119.794C276.909 119.551 276.697 119.43 276.373 119.43C276.049 119.43 275.833 119.551 275.725 119.794C275.617 120.028 275.563 120.604 275.563 121.523V129.61C275.563 130.456 275.617 131.009 275.725 131.27C275.833 131.522 276.044 131.648 276.36 131.648C276.684 131.648 276.895 131.531 276.994 131.297C277.102 131.063 277.156 130.559 277.156 129.785V121.523ZM289.969 116.581L289.874 118.228C290.27 117.571 290.752 117.081 291.319 116.757C291.895 116.424 292.556 116.257 293.303 116.257C294.239 116.257 295.005 116.478 295.599 116.919C296.193 117.36 296.575 117.918 296.746 118.593C296.917 119.259 297.003 120.375 297.003 121.941V134.497H291.548V122.09C291.548 120.856 291.508 120.105 291.427 119.835C291.346 119.565 291.121 119.43 290.752 119.43C290.365 119.43 290.122 119.587 290.023 119.902C289.924 120.208 289.874 121.036 289.874 122.387V134.497H284.42V116.581H289.969ZM310.031 122.306H305.198V121.333C305.198 120.505 305.148 119.983 305.049 119.767C304.959 119.542 304.725 119.43 304.347 119.43C304.041 119.43 303.812 119.533 303.659 119.74C303.506 119.938 303.429 120.24 303.429 120.645C303.429 121.194 303.465 121.599 303.537 121.86C303.618 122.112 303.848 122.391 304.226 122.697C304.613 123.003 305.4 123.449 306.589 124.034C308.173 124.808 309.212 125.537 309.707 126.221C310.202 126.905 310.45 127.9 310.45 129.205C310.45 130.663 310.261 131.765 309.883 132.512C309.505 133.25 308.87 133.822 307.979 134.227C307.097 134.623 306.03 134.821 304.779 134.821C303.393 134.821 302.205 134.605 301.215 134.173C300.234 133.741 299.559 133.156 299.19 132.418C298.821 131.68 298.636 130.564 298.636 129.07V128.206H303.47V129.34C303.47 130.303 303.528 130.928 303.645 131.216C303.771 131.504 304.014 131.648 304.374 131.648C304.761 131.648 305.031 131.554 305.184 131.365C305.337 131.167 305.414 130.757 305.414 130.136C305.414 129.281 305.315 128.746 305.117 128.53C304.91 128.314 303.852 127.675 301.944 126.612C300.342 125.712 299.365 124.898 299.014 124.169C298.663 123.431 298.488 122.558 298.488 121.55C298.488 120.118 298.677 119.065 299.055 118.39C299.433 117.706 300.072 117.18 300.972 116.811C301.881 116.442 302.934 116.257 304.131 116.257C305.319 116.257 306.327 116.41 307.156 116.716C307.993 117.013 308.632 117.409 309.073 117.904C309.523 118.399 309.793 118.858 309.883 119.281C309.982 119.704 310.031 120.366 310.031 121.266V122.306Z" fill="#D39D55"/>
</svg>
