<?xml version="1.0" encoding="UTF-8"?>
<svg id="Layer_2" data-name="Layer 2" xmlns="http://www.w3.org/2000/svg" viewBox="0 0 469.7 202.11">
  <defs>
    <style>
      .cls-1, .cls-2 {
        fill: #7bff7b;
      }

      .cls-1, .cls-3 {
        stroke-width: 0px;
      }

      .cls-2, .cls-4 {
        font-family: Impact, Impact;
        font-size: 48.24px;
      }

      .cls-5 {
        letter-spacing: .02em;
      }

      .cls-4, .cls-3 {
        fill: #3f00ff;
      }
    </style>
  </defs>
  <g id="Layer_1-2" data-name="Layer 1">
    <g>
      <path class="cls-3" d="M214.43,28.31c-18.48,77.09-68.41,151.32-70.53,154.44-3.95,5.83-13.13,19.36-27.03,19.36-.21,0-.41,0-.61-.01-13.58-.39-21.76-13.28-25.26-18.78-14.88-23.46-49.73-78.38-71.48-153.79-.79-2.72-3.17-10.99,1.49-18.29C28.02.26,43.88,1.57,49.09,2c4.34.36,9.18,1.11,14.48,2.25l8.25-3.22c7.73-3.02,16.48.81,19.5,8.54,2.37,6.06,2.23,12.7-.4,18.7-2.62,5.99-7.41,10.59-13.47,12.96-1.77.69-3.62,1.04-5.46,1.04-2.06,0-4.11-.43-6.05-1.28-3.69-1.62-6.52-4.56-7.99-8.3l-3.42-8.74c-.36-.92-.62-1.86-.79-2.81-11.84-1.92-16.13-.41-17.13.09-.02.5.1,1.43.61,3.19,21.02,72.88,54.88,126.25,69.34,149.03,4.27,6.73,7.71,10.17,10.22,10.24.03,0,.06,0,.09,0,2.75,0,6.71-3.8,11.78-11.28.5-.73,50.18-74.62,67.86-148.39.36-1.48.43-2.27.4-2.7-1.06-.53-6.33-2.43-22.06,1.02-.14.54-.31,1.08-.52,1.61l-3.42,8.74c-1.46,3.74-4.29,6.69-7.98,8.3-1.94.85-4,1.28-6.05,1.28-1.85,0-3.7-.35-5.46-1.04-12.56-4.9-18.78-19.1-13.88-31.66C139.86,3.64,145.55,0,151.57,0c1.82,0,3.67.33,5.46,1.03l8.75,3.42c.53.21,1.06.45,1.56.72,5.92-1.43,11.3-2.4,16.09-2.89,5.36-.55,21.65-2.22,28.93,8.85,4.53,6.89,2.67,14.64,2.06,17.18Z"/>
      <g>
        <path class="cls-1" d="M161.52,195.99c18.74-25.66,33.52-54.03,45.87-83.23,8.77-20.75,16.44-41.98,22.72-63.61,1.13-3.9,2.25-7.82,3.21-11.77,1.87-7.68-9.97-10.95-11.85-3.27-2.84,11.63-6.51,23.09-10.34,34.42-8.7,25.73-19.12,50.91-31.71,74.98-8.41,16.07-17.81,31.63-28.51,46.28-1.96,2.68-.45,6.85,2.2,8.4,3.11,1.82,6.44.48,8.4-2.2h0Z"/>
        <path class="cls-1" d="M82.62,189.79C51.34,146.97,29.98,96.63,15.26,45.88c-1.13-3.9-2.25-7.82-3.21-11.77-1.87-7.68-13.72-4.43-11.85,3.27,2.89,11.84,6.64,23.52,10.56,35.05,8.99,26.49,19.76,52.48,32.74,77.28,8.41,16.07,17.81,31.63,28.51,46.28,1.95,2.68,5.33,4,8.4,2.2,2.64-1.54,4.17-5.71,2.2-8.4h0Z"/>
      </g>
      <text class="cls-4" transform="translate(250.48 68.89)"><tspan x="0" y="0">Ve</tspan><tspan class="cls-5" x="49.91" y="0">r</tspan><tspan x="68.04" y="0">tex</tspan></text>
      <text class="cls-2" transform="translate(250.68 116.02)"><tspan x="0" y="0">Healthcare</tspan></text>
      <text class="cls-4" transform="translate(250.67 163.15)"><tspan x="0" y="0">Solutions</tspan></text>
    </g>
  </g>
</svg>