<svg width="399" height="163" viewBox="0 0 399 163" fill="none" xmlns="http://www.w3.org/2000/svg">
<path d="M173.243 22.8336C158.312 85.0052 117.973 144.87 116.26 147.387C113.069 152.088 105.652 163 94.4219 163C94.2522 163 94.0906 163 93.929 162.992C82.9575 162.677 76.3487 152.282 73.521 147.846C61.4991 128.926 33.3431 84.6343 15.7708 23.8175C15.1325 21.6239 13.2097 14.9543 16.9746 9.067C22.6381 0.211842 35.4517 1.26833 39.661 1.61512C43.1674 1.90545 47.0777 2.51031 51.3597 3.4297L58.0251 0.832832C64.2703 -1.60274 71.3396 1.48608 73.7795 7.72018C75.6943 12.6075 75.5812 17.9625 73.4563 22.8014C71.3396 27.6322 67.4696 31.342 62.5736 33.2534C61.1436 33.8098 59.649 34.0921 58.1624 34.0921C56.4981 34.0921 54.8418 33.7453 53.2745 33.0598C50.2933 31.7533 48.0068 29.3823 46.8192 26.366L44.0561 19.3174C43.7653 18.5754 43.5552 17.8173 43.4178 17.0512C33.8521 15.5027 30.3861 16.7205 29.5782 17.1237C29.562 17.527 29.659 18.277 30.071 19.6964C47.0535 78.4727 74.4097 121.515 86.0922 139.886C89.542 145.314 92.3213 148.088 94.3492 148.145C94.3734 148.145 94.3976 148.145 94.4219 148.145C96.6437 148.145 99.843 145.08 103.939 139.048C104.343 138.459 144.481 78.8679 158.765 19.3738C159.056 18.1802 159.112 17.5431 159.088 17.1963C158.231 16.7689 153.974 15.2366 141.265 18.0189C141.152 18.4544 141.015 18.8899 140.845 19.3174L138.082 26.366C136.902 29.3823 134.616 31.7614 131.635 33.0598C130.067 33.7453 128.403 34.0921 126.747 34.0921C125.252 34.0921 123.757 33.8098 122.336 33.2534C112.188 29.3016 107.163 17.8496 111.122 7.72018C112.996 2.93775 117.593 0.00215655 122.457 0.00215655C123.927 0.00215655 125.422 0.268295 126.868 0.832832L133.937 3.591C134.365 3.76036 134.794 3.95391 135.198 4.17166C139.981 3.0184 144.327 2.23611 148.197 1.84093C152.528 1.39737 165.689 0.0505458 171.57 8.97829C175.23 14.5349 173.727 20.7852 173.235 22.8336H173.243Z" fill="#8D0B41"/>
<path d="M130.495 158.065C145.635 137.371 157.576 114.491 167.554 90.9415C174.64 74.207 180.836 57.0854 185.91 39.6413C186.823 36.496 187.728 33.3346 188.504 30.149C190.014 23.9552 180.449 21.318 178.93 27.5118C176.635 36.8911 173.67 46.1334 170.576 55.2708C163.547 76.0216 155.128 96.3288 144.957 115.741C138.162 128.701 130.568 141.25 121.923 153.065C120.339 155.226 121.559 158.589 123.7 159.839C126.213 161.307 128.903 160.226 130.487 158.065H130.495Z" fill="#D39D55"/>
<path d="M66.7499 153.064C41.4782 118.531 24.221 77.9327 12.3284 37.0038C11.4154 33.8585 10.5106 30.6971 9.73497 27.5115C8.22416 21.3177 -1.3497 23.9388 0.161108 30.1487C2.496 39.6974 5.5257 49.1171 8.69275 58.4159C15.956 79.7795 24.6573 100.74 35.1441 120.741C41.9387 133.701 49.5331 146.25 58.1779 158.065C59.7533 160.226 62.4841 161.291 64.9644 159.839C67.0973 158.597 68.3335 155.234 66.7419 153.064H66.7499Z" fill="#D39D55"/>
<path d="M225.991 22.8053L221.452 57.1436H207.899L202.745 22.8053H212.163C213.251 32.2648 214.029 40.2608 214.496 46.7933C214.962 40.1901 215.45 34.3221 215.959 29.1894L216.574 22.8053H225.991ZM246.67 43.5695H235.578V49.6566C235.578 50.9292 235.67 51.7493 235.854 52.1169C236.037 52.4845 236.391 52.6683 236.914 52.6683C237.564 52.6683 237.996 52.428 238.208 51.9472C238.434 51.4523 238.547 50.505 238.547 49.1051V45.3935H246.67V47.472C246.67 49.2112 246.557 50.5474 246.331 51.4806C246.119 52.4138 245.61 53.4107 244.804 54.4712C243.998 55.5316 242.973 56.3305 241.729 56.8678C240.498 57.391 238.95 57.6526 237.084 57.6526C235.274 57.6526 233.676 57.391 232.29 56.8678C230.905 56.3447 229.823 55.6306 229.045 54.7257C228.282 53.8066 227.752 52.8027 227.455 51.7139C227.158 50.611 227.009 49.0132 227.009 46.9206V38.7125C227.009 36.2522 227.341 34.315 228.006 32.9011C228.671 31.473 229.759 30.3842 231.272 29.6348C232.785 28.8713 234.524 28.4895 236.49 28.4895C238.894 28.4895 240.873 28.949 242.428 29.8681C243.998 30.7731 245.094 31.982 245.716 33.4949C246.352 34.9937 246.67 37.1076 246.67 39.8366V43.5695ZM238.081 38.9882V36.9309C238.081 35.4745 238.003 34.5342 237.847 34.11C237.692 33.6858 237.374 33.4737 236.893 33.4737C236.299 33.4737 235.931 33.6575 235.79 34.0252C235.649 34.3787 235.578 35.3472 235.578 36.9309V38.9882H238.081ZM258.06 28.9985L257.721 32.689C258.965 30.0449 260.768 28.645 263.129 28.4895V38.3943C261.559 38.3943 260.407 38.6064 259.672 39.0306C258.937 39.4548 258.484 40.0487 258.314 40.8122C258.145 41.5616 258.06 43.3008 258.06 46.0298V57.1436H249.491V28.9985H258.06ZM274.9 25.2444V29.6772H277.212V34.1312H274.9V49.19C274.9 51.0423 274.992 52.0745 275.176 52.2866C275.374 52.4987 276.173 52.6047 277.573 52.6047V57.1436H274.116C272.164 57.1436 270.771 57.0658 269.937 56.9102C269.103 56.7406 268.368 56.3659 267.731 55.7861C267.095 55.1923 266.699 54.5206 266.544 53.7712C266.388 53.0077 266.31 51.2261 266.31 48.4264V34.1312H264.465V29.6772H266.31V25.2444H274.9ZM298.506 43.5695H287.414V49.6566C287.414 50.9292 287.506 51.7493 287.69 52.1169C287.873 52.4845 288.227 52.6683 288.75 52.6683C289.401 52.6683 289.832 52.428 290.044 51.9472C290.27 51.4523 290.383 50.505 290.383 49.1051V45.3935H298.506V47.472C298.506 49.2112 298.393 50.5474 298.167 51.4806C297.955 52.4138 297.446 53.4107 296.64 54.4712C295.834 55.5316 294.809 56.3305 293.565 56.8678C292.334 57.391 290.786 57.6526 288.92 57.6526C287.11 57.6526 285.512 57.391 284.126 56.8678C282.741 56.3447 281.659 55.6306 280.881 54.7257C280.118 53.8066 279.588 52.8027 279.291 51.7139C278.994 50.611 278.845 49.0132 278.845 46.9206V38.7125C278.845 36.2522 279.178 34.315 279.842 32.9011C280.507 31.473 281.595 30.3842 283.108 29.6348C284.621 28.8713 286.36 28.4895 288.326 28.4895C290.73 28.4895 292.709 28.949 294.265 29.8681C295.834 30.7731 296.93 31.982 297.552 33.4949C298.188 34.9937 298.506 37.1076 298.506 39.8366V43.5695ZM289.917 38.9882V36.9309C289.917 35.4745 289.839 34.5342 289.683 34.11C289.528 33.6858 289.21 33.4737 288.729 33.4737C288.135 33.4737 287.767 33.6575 287.626 34.0252C287.485 34.3787 287.414 35.3472 287.414 36.9309V38.9882H289.917ZM318.295 28.9985L314.88 42.4454L319.016 57.1436H310.681C309.861 53.439 309.238 50.2505 308.814 47.5781C308.249 50.915 307.634 54.1035 306.969 57.1436H299.8L303.491 42.4454L299.8 28.9985H306.969C308.114 34.7392 308.729 37.9984 308.814 38.7761C309.634 33.9828 310.257 30.7236 310.681 28.9985H318.295Z" fill="#D39D55"/>
<path d="M225.226 70.7951V105H216.331V90.6335H213.669V105H204.775V70.7951H213.669V83.0277H216.331V70.7951H225.226ZM247.895 91.4786H236.846V97.5421C236.846 98.8097 236.937 99.6267 237.12 99.9929C237.304 100.359 237.656 100.542 238.177 100.542C238.825 100.542 239.254 100.303 239.466 99.8238C239.691 99.3309 239.804 98.3872 239.804 96.9928V93.2955H247.895V95.366C247.895 97.0984 247.783 98.4294 247.557 99.359C247.346 100.289 246.839 101.282 246.036 102.338C245.233 103.394 244.212 104.19 242.973 104.725C241.747 105.246 240.205 105.507 238.346 105.507C236.543 105.507 234.951 105.246 233.571 104.725C232.191 104.204 231.113 103.493 230.339 102.592C229.578 101.676 229.05 100.676 228.754 99.5914C228.458 98.4928 228.31 96.9012 228.31 94.8167V86.6405C228.31 84.1897 228.641 82.2601 229.303 80.8516C229.965 79.4291 231.05 78.3445 232.557 77.598C234.064 76.8375 235.796 76.4572 237.754 76.4572C240.149 76.4572 242.121 76.9149 243.67 77.8304C245.233 78.7319 246.325 79.9361 246.945 81.4432C247.578 82.9362 247.895 85.0419 247.895 87.7602V91.4786ZM239.339 86.9151V84.8658C239.339 83.4151 239.261 82.4784 239.106 82.0559C238.951 81.6333 238.635 81.4221 238.156 81.4221C237.564 81.4221 237.198 81.6052 237.057 81.9714C236.916 82.3235 236.846 83.2883 236.846 84.8658V86.9151H239.339ZM258.332 87.8236H250.325V85.9433C250.325 83.7742 250.571 82.1052 251.064 80.9361C251.571 79.753 252.578 78.7107 254.086 77.8093C255.593 76.9079 257.55 76.4572 259.959 76.4572C262.846 76.4572 265.022 76.9713 266.487 77.9995C267.952 79.0136 268.832 80.2671 269.128 81.7601C269.424 83.239 269.572 86.2954 269.572 90.9293V105H261.269V102.507C260.748 103.507 260.072 104.261 259.241 104.768C258.424 105.261 257.445 105.507 256.304 105.507C254.811 105.507 253.438 105.092 252.184 104.261C250.945 103.415 250.325 101.577 250.325 98.7464V96.4435C250.325 94.3449 250.656 92.9152 251.318 92.1547C251.98 91.3941 253.621 90.5067 256.241 89.4926C259.043 88.394 260.543 87.6546 260.741 87.2743C260.938 86.894 261.036 86.1193 261.036 84.9503C261.036 83.4855 260.924 82.5348 260.698 82.0981C260.487 81.6474 260.128 81.4221 259.621 81.4221C259.043 81.4221 258.684 81.6122 258.543 81.9925C258.403 82.3587 258.332 83.3235 258.332 84.8869V87.8236ZM261.036 91.6687C259.67 92.6688 258.874 93.5068 258.649 94.1829C258.438 94.859 258.332 95.8308 258.332 97.0984C258.332 98.5492 258.424 99.4858 258.607 99.9083C258.804 100.331 259.184 100.542 259.748 100.542C260.283 100.542 260.628 100.38 260.783 100.056C260.952 99.7182 261.036 98.8449 261.036 97.4365V91.6687ZM281.297 70.7951V105H272.508V70.7951H281.297ZM293.382 73.2247V77.6403H295.685V82.077H293.382V97.0773C293.382 98.9224 293.474 99.9506 293.657 100.162C293.854 100.373 294.65 100.479 296.044 100.479V105H292.6C290.657 105 289.269 104.923 288.438 104.768C287.607 104.599 286.875 104.225 286.241 103.648C285.607 103.056 285.213 102.387 285.058 101.641C284.903 100.88 284.826 99.1055 284.826 96.3167V82.077H282.988V77.6403H284.826V73.2247H293.382ZM306.101 70.7951V78.4854C306.833 77.8093 307.622 77.3023 308.467 76.9642C309.326 76.6262 310.242 76.4572 311.213 76.4572C312.706 76.4572 313.974 76.8375 315.016 77.598C316.073 78.3586 316.714 79.2389 316.939 80.2389C317.178 81.2249 317.298 83.0348 317.298 85.6686V105H308.763V85.2672C308.763 83.6334 308.678 82.5841 308.509 82.1193C308.354 81.6545 307.995 81.4221 307.432 81.4221C306.911 81.4221 306.558 81.6615 306.375 82.1404C306.192 82.6193 306.101 83.57 306.101 84.9926V105H297.565V70.7951H306.101ZM339.122 87.5489H331.073V84.3165C331.073 83.1897 330.981 82.4291 330.798 82.0347C330.615 81.6263 330.277 81.4221 329.784 81.4221C329.291 81.4221 328.96 81.5981 328.791 81.9502C328.622 82.3024 328.538 83.0911 328.538 84.3165V97.5421C328.538 98.5421 328.665 99.2957 328.918 99.8027C329.172 100.296 329.545 100.542 330.038 100.542C330.615 100.542 331.003 100.282 331.2 99.7605C331.411 99.2393 331.517 98.2534 331.517 96.8027V93.4646H339.122C339.108 95.704 339.024 97.3872 338.869 98.514C338.728 99.6267 338.256 100.775 337.453 101.958C336.665 103.127 335.629 104.014 334.348 104.62C333.066 105.211 331.481 105.507 329.594 105.507C327.186 105.507 325.277 105.099 323.869 104.282C322.46 103.451 321.46 102.296 320.869 100.817C320.291 99.3238 320.002 97.2111 320.002 94.4787V86.5137C320.002 84.1334 320.242 82.3376 320.721 81.1263C321.2 79.915 322.221 78.8375 323.784 77.8938C325.348 76.9361 327.249 76.4572 329.488 76.4572C331.714 76.4572 333.615 76.929 335.193 77.8727C336.77 78.8164 337.82 80.0065 338.341 81.4432C338.862 82.8798 339.122 84.9151 339.122 87.5489ZM349.306 87.8236H341.299V85.9433C341.299 83.7742 341.545 82.1052 342.038 80.9361C342.545 79.753 343.552 78.7107 345.059 77.8093C346.566 76.9079 348.524 76.4572 350.933 76.4572C353.82 76.4572 355.996 76.9713 357.461 77.9995C358.926 79.0136 359.806 80.2671 360.102 81.7601C360.398 83.239 360.545 86.2954 360.545 90.9293V105H352.242V102.507C351.721 103.507 351.045 104.261 350.214 104.768C349.397 105.261 348.418 105.507 347.278 105.507C345.785 105.507 344.411 105.092 343.158 104.261C341.918 103.415 341.299 101.577 341.299 98.7464V96.4435C341.299 94.3449 341.63 92.9152 342.292 92.1547C342.954 91.3941 344.594 90.5067 347.214 89.4926C350.017 88.394 351.517 87.6546 351.714 87.2743C351.911 86.894 352.01 86.1193 352.01 84.9503C352.01 83.4855 351.897 82.5348 351.672 82.0981C351.461 81.6474 351.102 81.4221 350.595 81.4221C350.017 81.4221 349.658 81.6122 349.517 81.9925C349.376 82.3587 349.306 83.3235 349.306 84.8869V87.8236ZM352.01 91.6687C350.644 92.6688 349.848 93.5068 349.623 94.1829C349.411 94.859 349.306 95.8308 349.306 97.0984C349.306 98.5492 349.397 99.4858 349.58 99.9083C349.778 100.331 350.158 100.542 350.721 100.542C351.257 100.542 351.602 100.38 351.757 100.056C351.926 99.7182 352.01 98.8449 352.01 97.4365V91.6687ZM372.017 76.9642L371.679 80.6404C372.919 78.0065 374.715 76.6121 377.067 76.4572V86.3236C375.503 86.3236 374.356 86.5348 373.623 86.9574C372.891 87.3799 372.44 87.9715 372.271 88.7321C372.102 89.4786 372.017 91.211 372.017 93.9294V105H363.482V76.9642H372.017ZM398.321 91.4786H387.271V97.5421C387.271 98.8097 387.363 99.6267 387.546 99.9929C387.729 100.359 388.081 100.542 388.602 100.542C389.25 100.542 389.68 100.303 389.891 99.8238C390.116 99.3309 390.229 98.3872 390.229 96.9928V93.2955H398.321V95.366C398.321 97.0984 398.208 98.4294 397.983 99.359C397.772 100.289 397.264 101.282 396.462 102.338C395.659 103.394 394.638 104.19 393.398 104.725C392.173 105.246 390.631 105.507 388.771 105.507C386.968 105.507 385.377 105.246 383.997 104.725C382.616 104.204 381.539 103.493 380.764 102.592C380.004 101.676 379.475 100.676 379.18 99.5914C378.884 98.4928 378.736 96.9012 378.736 94.8167V86.6405C378.736 84.1897 379.067 82.2601 379.729 80.8516C380.391 79.4291 381.475 78.3445 382.983 77.598C384.49 76.8375 386.222 76.4572 388.18 76.4572C390.574 76.4572 392.546 76.9149 394.095 77.8304C395.659 78.7319 396.75 79.9361 397.37 81.4432C398.004 82.9362 398.321 85.0419 398.321 87.7602V91.4786ZM389.764 86.9151V84.8658C389.764 83.4151 389.687 82.4784 389.532 82.0559C389.377 81.6333 389.06 81.4221 388.581 81.4221C387.99 81.4221 387.623 81.6052 387.483 81.9714C387.342 82.3235 387.271 83.2883 387.271 84.8658V86.9151H389.764Z" fill="#8D0B41"/>
<path d="M220.79 127.421H213.663V125.234C213.663 124.213 213.572 123.563 213.39 123.284C213.207 123.004 212.904 122.865 212.478 122.865C212.016 122.865 211.664 123.053 211.421 123.43C211.19 123.806 211.075 124.377 211.075 125.143C211.075 126.127 211.208 126.868 211.476 127.367C211.731 127.865 212.454 128.466 213.645 129.171C217.059 131.2 219.21 132.865 220.097 134.165C220.984 135.466 221.428 137.562 221.428 140.454C221.428 142.556 221.179 144.105 220.681 145.102C220.194 146.098 219.247 146.937 217.837 147.617C216.427 148.286 214.787 148.62 212.916 148.62C210.862 148.62 209.106 148.231 207.648 147.453C206.202 146.675 205.254 145.685 204.805 144.482C204.355 143.279 204.13 141.572 204.13 139.36V137.428H211.257V141.019C211.257 142.125 211.354 142.836 211.549 143.152C211.755 143.467 212.114 143.625 212.624 143.625C213.134 143.625 213.511 143.425 213.754 143.024C214.009 142.623 214.137 142.028 214.137 141.238C214.137 139.5 213.9 138.364 213.426 137.829C212.94 137.294 211.743 136.401 209.835 135.15C207.927 133.886 206.664 132.969 206.044 132.397C205.424 131.826 204.908 131.036 204.495 130.028C204.094 129.019 203.893 127.731 203.893 126.164C203.893 123.903 204.179 122.251 204.75 121.206C205.333 120.161 206.269 119.347 207.557 118.763C208.845 118.168 210.4 117.87 212.223 117.87C214.216 117.87 215.911 118.192 217.308 118.836C218.718 119.48 219.648 120.294 220.097 121.279C220.559 122.251 220.79 123.91 220.79 126.255V127.421ZM240.293 132.306V138.23C240.293 140.405 240.184 142.003 239.965 143.024C239.746 144.033 239.278 144.98 238.562 145.867C237.845 146.742 236.921 147.392 235.791 147.818C234.673 148.231 233.385 148.437 231.927 148.437C230.298 148.437 228.919 148.261 227.789 147.909C226.659 147.544 225.778 147.004 225.146 146.287C224.526 145.558 224.083 144.683 223.816 143.662C223.548 142.629 223.415 141.086 223.415 139.032V132.835C223.415 130.587 223.658 128.831 224.144 127.567C224.63 126.303 225.505 125.289 226.768 124.523C228.032 123.758 229.648 123.375 231.617 123.375C233.27 123.375 234.685 123.624 235.864 124.122C237.055 124.608 237.972 125.246 238.616 126.036C239.26 126.826 239.698 127.64 239.929 128.479C240.172 129.317 240.293 130.593 240.293 132.306ZM232.929 130.484C232.929 129.244 232.862 128.466 232.729 128.15C232.595 127.822 232.31 127.658 231.872 127.658C231.435 127.658 231.143 127.822 230.997 128.15C230.851 128.466 230.778 129.244 230.778 130.484V141.402C230.778 142.544 230.851 143.291 230.997 143.644C231.143 143.984 231.429 144.154 231.854 144.154C232.291 144.154 232.577 143.996 232.711 143.68C232.856 143.364 232.929 142.684 232.929 141.639V130.484ZM250.318 118.49V148H242.736V118.49H250.318ZM269.84 123.812V148H262.348L262.476 145.995C261.965 146.809 261.334 147.423 260.58 147.836C259.839 148.237 258.982 148.437 258.01 148.437C256.904 148.437 255.987 148.243 255.258 147.854C254.529 147.465 253.988 146.949 253.636 146.305C253.295 145.661 253.083 144.992 252.998 144.3C252.913 143.595 252.87 142.204 252.87 140.126V123.812H260.234V140.272C260.234 142.155 260.289 143.273 260.398 143.625C260.519 143.978 260.835 144.154 261.346 144.154C261.893 144.154 262.215 143.972 262.312 143.607C262.421 143.243 262.476 142.07 262.476 140.089V123.812H269.84ZM280.247 120.586V124.396H282.234V128.223H280.247V141.165C280.247 142.757 280.326 143.644 280.484 143.826C280.655 144.008 281.341 144.099 282.544 144.099V148H279.573C277.896 148 276.699 147.933 275.982 147.799C275.265 147.654 274.633 147.332 274.087 146.833C273.54 146.323 273.2 145.746 273.066 145.102C272.932 144.446 272.865 142.915 272.865 140.509V128.223H271.28V124.396H272.865V120.586H280.247ZM291.439 118.49V122.336H283.856V118.49H291.439ZM291.439 123.812V148H283.856V123.812H291.439ZM310.76 132.306V138.23C310.76 140.405 310.651 142.003 310.432 143.024C310.213 144.033 309.745 144.98 309.028 145.867C308.311 146.742 307.388 147.392 306.258 147.818C305.14 148.231 303.852 148.437 302.394 148.437C300.765 148.437 299.386 148.261 298.256 147.909C297.126 147.544 296.245 147.004 295.613 146.287C294.993 145.558 294.55 144.683 294.282 143.662C294.015 142.629 293.881 141.086 293.881 139.032V132.835C293.881 130.587 294.125 128.831 294.611 127.567C295.097 126.303 295.972 125.289 297.235 124.523C298.499 123.758 300.115 123.375 302.084 123.375C303.736 123.375 305.152 123.624 306.331 124.122C307.522 124.608 308.439 125.246 309.083 126.036C309.727 126.826 310.165 127.64 310.395 128.479C310.638 129.317 310.76 130.593 310.76 132.306ZM303.396 130.484C303.396 129.244 303.329 128.466 303.196 128.15C303.062 127.822 302.776 127.658 302.339 127.658C301.902 127.658 301.61 127.822 301.464 128.15C301.318 128.466 301.245 129.244 301.245 130.484V141.402C301.245 142.544 301.318 143.291 301.464 143.644C301.61 143.984 301.895 144.154 302.321 144.154C302.758 144.154 303.044 143.996 303.177 143.68C303.323 143.364 303.396 142.684 303.396 141.639V130.484ZM320.694 123.812L320.566 126.036C321.101 125.149 321.751 124.487 322.517 124.049C323.294 123.6 324.187 123.375 325.196 123.375C326.46 123.375 327.493 123.673 328.295 124.268C329.097 124.863 329.613 125.617 329.844 126.528C330.075 127.427 330.19 128.934 330.19 131.049V148H322.826V131.249C322.826 129.584 322.772 128.57 322.662 128.205C322.553 127.841 322.249 127.658 321.751 127.658C321.229 127.658 320.9 127.871 320.767 128.296C320.633 128.709 320.566 129.827 320.566 131.65V148H313.202V123.812H320.694ZM347.78 131.541H341.254V130.228C341.254 129.11 341.188 128.406 341.054 128.114C340.932 127.81 340.616 127.658 340.106 127.658C339.693 127.658 339.383 127.798 339.176 128.078C338.97 128.345 338.867 128.752 338.867 129.299C338.867 130.04 338.915 130.587 339.012 130.939C339.122 131.279 339.432 131.656 339.942 132.069C340.464 132.482 341.528 133.084 343.132 133.874C345.27 134.919 346.674 135.903 347.342 136.827C348.011 137.75 348.345 139.093 348.345 140.855C348.345 142.823 348.09 144.312 347.579 145.321C347.069 146.317 346.212 147.089 345.009 147.635C343.818 148.17 342.378 148.437 340.689 148.437C338.818 148.437 337.214 148.146 335.877 147.563C334.553 146.979 333.641 146.189 333.143 145.193C332.645 144.197 332.396 142.69 332.396 140.673V139.506H338.921V141.037C338.921 142.337 339 143.182 339.158 143.571C339.328 143.96 339.656 144.154 340.142 144.154C340.665 144.154 341.03 144.026 341.236 143.771C341.443 143.504 341.546 142.951 341.546 142.113C341.546 140.958 341.412 140.235 341.145 139.944C340.865 139.652 339.438 138.789 336.862 137.355C334.699 136.14 333.38 135.04 332.906 134.056C332.432 133.06 332.195 131.881 332.195 130.52C332.195 128.588 332.451 127.166 332.961 126.255C333.471 125.331 334.334 124.62 335.549 124.122C336.776 123.624 338.198 123.375 339.814 123.375C341.418 123.375 342.779 123.581 343.897 123.995C345.027 124.396 345.89 124.93 346.486 125.599C347.093 126.267 347.458 126.887 347.579 127.458C347.713 128.029 347.78 128.922 347.78 130.137V131.541Z" fill="#D39D55"/>
</svg>
